<svg xmlns="http://www.w3.org/2000/svg" xmlns:xlink="http://www.w3.org/1999/xlink" width="108" zoomAndPan="magnify" viewBox="0 0 81 30.000001" height="40" preserveAspectRatio="xMidYMid meet" version="1.0"><defs><g/><clipPath id="586baf8308"><path d="M 73.929688 16.984375 L 78.285156 16.984375 L 78.285156 21.339844 L 73.929688 21.339844 Z M 73.929688 16.984375 " clip-rule="nonzero"/></clipPath></defs><g fill="#ffffff" fill-opacity="1"><g transform="translate(1.406249, 21.774195)"><g><path d="M 8.640625 0 L 5.703125 -5.4375 L 5.265625 -5.4375 L 5.265625 0 L 1.171875 0 L 1.171875 -14.734375 L 7.625 -14.734375 C 8.8125 -14.734375 9.816406 -14.523438 10.640625 -14.109375 C 11.460938 -13.703125 12.082031 -13.140625 12.5 -12.421875 C 12.914062 -11.710938 13.125 -10.910156 13.125 -10.015625 C 13.125 -9.015625 12.847656 -8.132812 12.296875 -7.375 C 11.753906 -6.613281 10.953125 -6.070312 9.890625 -5.75 L 13.21875 0 Z M 5.265625 -8.234375 L 7.296875 -8.234375 C 7.847656 -8.234375 8.265625 -8.363281 8.546875 -8.625 C 8.828125 -8.894531 8.96875 -9.28125 8.96875 -9.78125 C 8.96875 -10.257812 8.820312 -10.632812 8.53125 -10.90625 C 8.25 -11.175781 7.835938 -11.3125 7.296875 -11.3125 L 5.265625 -11.3125 Z M 5.265625 -8.234375 "/></g></g></g><g fill="#ffffff" fill-opacity="1"><g transform="translate(15.2218, 21.774195)"><g><path d="M 3.234375 -12.8125 C 2.515625 -12.8125 1.9375 -13.007812 1.5 -13.40625 C 1.0625 -13.800781 0.84375 -14.300781 0.84375 -14.90625 C 0.84375 -15.519531 1.0625 -16.023438 1.5 -16.421875 C 1.9375 -16.828125 2.515625 -17.03125 3.234375 -17.03125 C 3.953125 -17.03125 4.53125 -16.828125 4.96875 -16.421875 C 5.40625 -16.023438 5.625 -15.519531 5.625 -14.90625 C 5.625 -14.300781 5.40625 -13.800781 4.96875 -13.40625 C 4.53125 -13.007812 3.953125 -12.8125 3.234375 -12.8125 Z M 5.265625 -11.734375 L 5.265625 0 L 1.171875 0 L 1.171875 -11.734375 Z M 5.265625 -11.734375 "/></g></g></g><g fill="#ffffff" fill-opacity="1"><g transform="translate(21.659301, 21.774195)"><g><path d="M 8.515625 0 L 5.265625 -4.8125 L 5.265625 0 L 1.171875 0 L 1.171875 -15.46875 L 5.265625 -15.46875 L 5.265625 -7.125 L 8.515625 -11.734375 L 13.421875 -11.734375 L 8.796875 -5.828125 L 13.5 0 Z M 8.515625 0 "/></g></g></g><g fill="#ffffff" fill-opacity="1"><g transform="translate(35.182242, 21.774195)"><g><path d="M 3.234375 -12.8125 C 2.515625 -12.8125 1.9375 -13.007812 1.5 -13.40625 C 1.0625 -13.800781 0.84375 -14.300781 0.84375 -14.90625 C 0.84375 -15.519531 1.0625 -16.023438 1.5 -16.421875 C 1.9375 -16.828125 2.515625 -17.03125 3.234375 -17.03125 C 3.953125 -17.03125 4.53125 -16.828125 4.96875 -16.421875 C 5.40625 -16.023438 5.625 -15.519531 5.625 -14.90625 C 5.625 -14.300781 5.40625 -13.800781 4.96875 -13.40625 C 4.53125 -13.007812 3.953125 -12.8125 3.234375 -12.8125 Z M 5.265625 -11.734375 L 5.265625 0 L 1.171875 0 L 1.171875 -11.734375 Z M 5.265625 -11.734375 "/></g></g></g><g fill="#ffffff" fill-opacity="1"><g transform="translate(41.619743, 21.774195)"><g><path d="M 6.734375 0.140625 C 5.015625 0.140625 3.601562 -0.265625 2.5 -1.078125 C 1.40625 -1.890625 0.816406 -3.054688 0.734375 -4.578125 L 5.09375 -4.578125 C 5.132812 -4.066406 5.285156 -3.691406 5.546875 -3.453125 C 5.816406 -3.210938 6.160156 -3.09375 6.578125 -3.09375 C 6.960938 -3.09375 7.273438 -3.1875 7.515625 -3.375 C 7.753906 -3.5625 7.875 -3.820312 7.875 -4.15625 C 7.875 -4.59375 7.671875 -4.925781 7.265625 -5.15625 C 6.867188 -5.394531 6.21875 -5.660156 5.3125 -5.953125 C 4.351562 -6.273438 3.578125 -6.585938 2.984375 -6.890625 C 2.390625 -7.191406 1.875 -7.628906 1.4375 -8.203125 C 1 -8.785156 0.78125 -9.539062 0.78125 -10.46875 C 0.78125 -11.414062 1.015625 -12.226562 1.484375 -12.90625 C 1.953125 -13.582031 2.601562 -14.09375 3.4375 -14.4375 C 4.28125 -14.789062 5.234375 -14.96875 6.296875 -14.96875 C 8.003906 -14.96875 9.367188 -14.566406 10.390625 -13.765625 C 11.421875 -12.960938 11.972656 -11.835938 12.046875 -10.390625 L 7.59375 -10.390625 C 7.570312 -10.835938 7.429688 -11.171875 7.171875 -11.390625 C 6.921875 -11.617188 6.59375 -11.734375 6.1875 -11.734375 C 5.882812 -11.734375 5.632812 -11.640625 5.4375 -11.453125 C 5.238281 -11.273438 5.140625 -11.019531 5.140625 -10.6875 C 5.140625 -10.40625 5.25 -10.160156 5.46875 -9.953125 C 5.6875 -9.753906 5.953125 -9.582031 6.265625 -9.4375 C 6.585938 -9.289062 7.0625 -9.109375 7.6875 -8.890625 C 8.625 -8.566406 9.394531 -8.25 10 -7.9375 C 10.601562 -7.625 11.125 -7.179688 11.5625 -6.609375 C 12.007812 -6.046875 12.234375 -5.332031 12.234375 -4.46875 C 12.234375 -3.59375 12.007812 -2.804688 11.5625 -2.109375 C 11.125 -1.410156 10.488281 -0.859375 9.65625 -0.453125 C 8.832031 -0.0546875 7.859375 0.140625 6.734375 0.140625 Z M 6.734375 0.140625 "/></g></g></g><g fill="#ffffff" fill-opacity="1"><g transform="translate(54.578349, 21.774195)"><g><path d="M 18.375 -14.734375 L 18.375 0 L 14.28125 0 L 14.28125 -8.125 L 11.5 0 L 8.0625 0 L 5.265625 -8.1875 L 5.265625 0 L 1.171875 0 L 1.171875 -14.734375 L 6.125 -14.734375 L 9.828125 -5.15625 L 13.4375 -14.734375 Z M 18.375 -14.734375 "/></g></g></g><g clip-path="url(#586baf8308)"><path fill="#ff1616" d="M 73.929688 16.984375 L 78.285156 16.984375 L 78.285156 21.339844 L 73.929688 21.339844 L 73.929688 16.984375 " fill-opacity="1" fill-rule="nonzero"/></g></svg>